<?xml version="1.0" encoding="UTF-8" standalone="no"?><!DOCTYPE svg PUBLIC "-//W3C//DTD SVG 1.1//EN" "http://www.w3.org/Graphics/SVG/1.1/DTD/svg11.dtd"><svg width="100%" height="100%" viewBox="0 0 500 500" version="1.1" xmlns="http://www.w3.org/2000/svg" xmlns:xlink="http://www.w3.org/1999/xlink" xml:space="preserve" style="fill-rule:evenodd;clip-rule:evenodd;stroke-linecap:round;stroke-linejoin:round;stroke-miterlimit:1.5;"><rect x="0" y="-0.29" width="500" height="500.29" style="fill:#3eb2aa;"/><path d="M317.016,145.811l10.858,6.862l-32.239,50.855l9.466,5.984l32.516,-51.309l11.055,6.749l-32.769,51.687l9.851,6.384l32.47,-51.162l10.125,6.162c-18.763,26.216 -48.713,76.39 -48.713,76.39c0,0 -2.606,7.137 -11.507,10.771c-4.705,1.921 -17.12,-1.183 -17.12,-1.183l-119.713,200.108c0,0 -6.297,12.418 -21.519,3.028c-15.221,-9.39 -8.361,-21.461 -8.361,-21.461l129.847,-193.567c0,0 -6.478,-7.87 -7.36,-14.809c-1.163,-9.153 4.885,-15.521 4.885,-15.521l48.228,-75.968Z" style="fill:#121313;"/><path d="M230.263,312.473l17.072,26.668l20.656,-33.912l-19.165,-26.169l-18.563,33.413Z" style="fill:#3eb2aa;stroke:#3eb2aa;stroke-width:1px;"/><path d="M142.337,145.811l224.086,299.181l-5.894,24.51l-24.955,-2.789l-101.587,-163.235c0,0 -30.836,-1.816 -78.666,-62.456c-43.744,-64.549 -12.984,-95.211 -12.984,-95.211Z" style="fill:#121313;"/><path d="M43.882,104.077l10.359,31.882l33.522,0l-27.12,19.704l10.359,31.882l-27.12,-19.704l-27.121,19.704l10.359,-31.882l-27.12,-19.704l33.523,0l10.359,-31.882Z" style="fill:#121313;"/><path d="M456.118,104.077l10.359,31.882l33.523,0l-27.12,19.704l10.359,31.882l-27.121,-19.704l-27.12,19.704l10.359,-31.882l-27.12,-19.704l33.522,0l10.359,-31.882Z" style="fill:#121313;"/><path d="M250,29.062l10.359,31.882l33.523,0l-27.121,19.704l10.359,31.881l-27.12,-19.704l-27.12,19.704l10.359,-31.881l-27.121,-19.704l33.523,0l10.359,-31.882Z" style="fill:#121313;"/></svg>